<svg xmlns="http://www.w3.org/2000/svg" xmlns:v="https://vecta.io/nano" viewBox="0 0 261.83 43.98" fill="#fff"><path d="M69.93 13.6v29.55h-8.86v-2.78c-1.6 2.19-4.56 3.63-8.46 3.63-6 0-11-4.26-11-12.24V13.6h8.87v16.84c0 3.67 2.3 5.38 5.14 5.38 3.25 0 5.5-1.89 5.5-6.09V13.6zM75 28.37a15.63 15.63 0 0 1 29-8l-7.74 4.5a6.11 6.11 0 0 0-5.73-3.31 6.5 6.5 0 0 0-6.68 6.85 6.5 6.5 0 0 0 6.68 6.86 6.06 6.06 0 0 0 5.73-3.31l7.74 4.39A15.07 15.07 0 0 1 90.62 44 15.31 15.31 0 0 1 75 28.37zm50.86 14.78l-9.46-13.06v13.06h-8.87V1.77h8.87v24.77l8.87-12.94h10.34l-10.76 14.77 11.06 14.78zM169.6 16a14.22 14.22 0 0 1-14.48 14.19h-6.21v13h-9.45V1.77h15.66A14.22 14.22 0 0 1 169.6 16zm-9.45 0a5.06 5.06 0 0 0-5-5.32h-6.21v10.6h6.21a5.06 5.06 0 0 0 5-5.28zm13-10.33a5.32 5.32 0 1 1 10.64 0 5.32 5.32 0 1 1-10.64 0zm.85 7.93h8.87v29.55H174zm33.32 29.55l-5.5-7.8-5.49 7.8h-10.17l10.58-15-10.23-14.55h10.17l5.14 7.33L207 13.6h10.16l-10.25 14.54 10.58 15zm26.37-7.09a7.71 7.71 0 0 0 5.67-2.25l7.1 4.08c-2.9 4-7.27 6.09-12.89 6.09-10.11 0-16.37-6.8-16.37-15.61s6.38-15.6 15.72-15.6c8.63 0 15 6.68 15 15.6a16.9 16.9 0 0 1-.35 3.55h-21c1.15 3.08 3.87 4.14 7.12 4.14zm5.44-10.76a6.09 6.09 0 0 0-6.27-4.67c-3.37 0-5.61 1.66-6.44 4.67zM253 0h8.87v43.15H253zM15.05 33.64a15.69 15.69 0 0 0 2.71-6.39 3.26 3.26 0 0 0-.28-2.09 3.36 3.36 0 0 0-2.14-1.31c-3.95-1.07-9.72-1-11.46-5.65a.81.81 0 0 1 0-.77.72.72 0 0 1 .41-.22 2.71 2.71 0 0 1 1.13.08c3.14.63 6.41.31 8.83-2 .76-.73 1.33-1.63 2.1-2.34a8.11 8.11 0 0 1 6.39-1.88 6.86 6.86 0 0 1 3.35 1.15 6.41 6.41 0 0 1 2.38 4.43 11.21 11.21 0 0 1-.89 5.75 26.81 26.81 0 0 0-2.12 5 12.31 12.31 0 0 0 .53 6.9A12.75 12.75 0 0 0 29 38.84a20.68 20.68 0 0 0 7.61-16.38c0-11.7-8.69-20.69-20.1-20.69H0v41.38h9.82a9.8 9.8 0 0 1 .41-1.7c.99-2.89 3.23-5.25 4.82-7.81z"></path><circle cx="18.27" cy="17.83" r="1.54"></circle></svg>